<svg width="900" height="795" viewBox="0 0 900 795" fill="none" xmlns="http://www.w3.org/2000/svg">
<g clip-path="url(#clip0)">
<g clip-path="url(#clip1)">
<path fill-rule="evenodd" clip-rule="evenodd" d="M770.225 246.334C769.692 245.946 768.426 245.809 767.838 245.692C765.39 245.21 762.869 245 760.374 245C752.681 245.012 744.863 245.767 737.298 247.074C732.494 247.903 726.687 250.696 721.909 249.179C713.585 246.537 705.172 246.667 697.274 250.439C690.053 253.888 684.572 260.439 681.373 267.517C680.89 268.586 678.932 272.519 678.378 275.17C678.141 275.712 677.913 276.257 677.708 276.811C677.126 278.384 676.603 279.984 676.118 281.588C675.91 282.272 675.389 283.782 676.008 284.074C675.019 285.901 674.141 287.783 673.411 289.726C671.286 295.378 668.962 301.578 668.215 307.568C667.939 309.786 667.928 312.017 668.185 314.239C668.312 315.338 668.26 317.546 669.004 318.382C670.585 320.154 671.396 317.673 671.218 316.491C669.858 307.485 672.485 299.027 675.598 290.561C677.612 285.087 680.92 280.078 684.626 275.543C687.625 271.871 690.842 268.98 694.953 266.546C699.981 263.569 705.356 261.163 710.681 258.749C714.184 257.161 717.691 255.615 721.291 254.247C722.092 253.942 723.351 253.161 724.239 253.158C726.116 253.152 728.777 254.537 730.59 255.052C736.554 256.748 742.594 258.919 748.758 259.785C752.712 260.341 756.416 259.715 760.113 258.398C760.491 258.264 761.125 257.918 761.901 257.424C764.646 256.368 767.243 255.039 769.504 253.121C770.806 252.017 771.989 250.589 773.067 249.282C773.389 248.892 773.532 248.444 773.537 248.018C773.781 247.891 773.943 247.741 773.98 247.567C774.249 246.281 771.796 246.258 770.225 246.334Z" fill="#89C5CC"/>
<path fill-rule="evenodd" clip-rule="evenodd" d="M145.273 353.541C143.764 354.763 142.284 356.011 140.84 357.31C139.739 358.3 137.791 359.485 137.396 360.985C136.985 362.544 138.282 364.003 139.306 364.945C144.723 369.929 150.823 373.298 158.329 373.859C169.887 374.722 179.946 371.77 189.974 365.963C197.018 361.883 201.684 355.849 202.703 347.701C211.092 351.187 219.205 355.993 226.1 361.891C229.502 364.801 232.432 368.025 235.142 371.599C236.878 373.889 238.557 376.215 240.115 378.631C240.792 379.68 241.481 381.542 242.599 382.146C243.912 382.856 245.499 381.743 245.434 380.284C245.379 379.069 244.068 377.66 243.454 376.667C242.436 375.018 241.402 373.379 240.313 371.776C238.551 369.179 236.73 366.62 234.744 364.19C230.28 358.73 224.601 354.221 218.714 350.375C207.42 342.997 195.025 338.349 181.283 337.955C172.833 337.713 165.725 340.6 158.499 344.911C154 347.595 149.356 350.235 145.273 353.541Z" fill="#DDE3E9"/>
<path fill-rule="evenodd" clip-rule="evenodd" d="M254.883 317.856C246.077 308.787 237.241 299.832 227.403 291.847C221.605 287.141 215.495 282.863 209.511 278.401C210.201 279.006 210.878 279.628 211.539 280.266C209.671 278.998 207.226 278.281 205.246 277.107C203.037 275.798 200.925 274.301 198.854 272.791C194.811 269.845 190.829 266.843 186.673 264.051C182.043 260.94 177.245 258.066 172.536 255.072C168.539 252.532 164.494 249.751 160.218 247.674C157.888 246.542 155.553 245.201 153.213 244.02C152.43 243.625 144.484 238.608 144.504 238.593C144.943 238.262 148.942 240.14 149.56 240.393C151.366 241.131 153.094 242.013 154.83 242.893C153.877 241.013 153.123 239.038 152.712 236.958C152.585 236.317 151.569 231.644 152.089 231.252C152.348 231.057 154.883 239.416 155.013 240.22C155.119 240.872 155.103 241.812 155.317 242.431C155.662 243.429 155.645 243.127 156.405 243.69C157.798 244.721 159.647 245.365 161.154 246.227C161.968 246.68 164.485 248.48 166.001 248.993C170.588 251.221 175.238 254.649 179.597 257.495C178.453 255.345 177.582 253.097 176.948 250.741C176.797 250.182 175.167 245.165 175.563 244.867C176.008 244.532 179.112 252.195 179.296 252.92C179.637 254.268 179.708 255.768 180.136 257.079C180.605 258.518 182.07 259.028 183.39 259.867C188.247 262.953 192.938 266.232 197.55 269.662C202.583 260.711 196.78 249.903 191.89 242.393C188.364 236.98 183.619 232.34 178.608 228.289C171.92 222.882 164.269 218.563 156.627 214.612C147.723 210.009 138.099 207.156 128.093 205.839C122.86 205.149 117.507 205.169 112.221 205.39C109.639 205.498 107.16 205.84 104.686 206.682C103.57 207.062 102.492 207.541 101.442 208.077C100.644 208.484 98.7134 208.914 98.2545 209.521C94.4772 214.438 92.5448 219.337 92.8399 225.515C93.1189 231.363 94.9659 237.214 97.4725 242.431C100.264 248.24 103.854 253.512 108.55 257.936C112.132 261.312 116.137 264.25 120.116 267.15C134.267 277.463 152.208 286.433 170.536 284.128C176.469 283.383 182.112 281.308 187.385 278.489C188.628 277.824 189.863 277.152 191.036 276.368C191.827 275.839 193.941 273.456 194.736 273.37C195.827 273.251 198.175 275.469 199.198 276.144C206.972 281.275 214.542 286.685 221.953 292.313C229.839 298.301 237.337 304.697 244.615 311.393C247.71 314.242 250.786 317.096 253.791 320.04C254.491 320.725 256.202 323.247 257.471 323.361C258.273 323.434 258.814 322.749 258.7 322.006C258.501 320.715 255.785 318.784 254.883 317.856Z" fill="#C1DEE2"/>
<path fill-rule="evenodd" clip-rule="evenodd" d="M760.98 282.66C757.57 281.915 753.803 281.972 750.329 282.033C731.695 282.287 713.397 291.109 701.489 305.205C691.351 317.205 688.563 332.125 686.56 347.207C686.362 348.704 686.277 350.192 686.165 351.693C686.141 352.015 686.105 352.302 686.066 352.573C685.279 353.277 684.865 354.098 685.332 355C683.597 358.797 682.129 362.69 680.869 366.706C677.162 378.526 673.392 390.571 675.714 403C676.257 396.16 677.399 389.166 678.764 382.438C678.842 382.052 678.927 381.669 679.015 381.287C679.025 381.247 679.033 381.206 679.042 381.166C679.525 379.106 680.153 377.108 680.917 375.141C680.925 375.119 680.933 375.098 680.941 375.077C681.042 374.818 681.149 374.56 681.255 374.303C681.474 373.77 681.699 373.238 681.937 372.709C682.018 372.528 682.095 372.346 682.17 372.163C683.282 369.437 683.751 366.365 684.748 363.545C684.986 362.904 685.235 362.265 685.496 361.629C685.512 361.592 685.527 361.555 685.543 361.518C686.249 359.807 687.028 358.118 687.853 356.446C688.301 356.109 688.54 355.274 688.927 354.515C689.006 354.365 689.631 353.368 689.817 352.793C690.303 351.854 690.786 350.915 691.275 349.977C691.261 349.983 691.246 349.988 691.231 349.994C691.72 349.093 692.211 348.197 692.698 347.304C692.805 347.108 692.913 346.912 693.021 346.715C693.196 346.402 693.371 346.089 693.545 345.777C695.177 342.856 696.908 339.994 698.705 337.167C699.347 336.158 700.879 334.711 701.173 333.579C701.184 333.536 701.186 333.497 701.193 333.457C705.093 327.979 709.582 322.927 714.967 318.924C714.316 319.628 712.932 322.015 712.567 322.488C711.447 323.935 710.232 325.282 709.013 326.646C706.828 329.089 704.696 331.609 702.801 334.274C699.335 339.148 696.346 344.277 693.519 349.51C693.493 349.54 693.463 349.569 693.438 349.601C692.017 351.352 691.123 353.998 690.101 356.001C694.147 354.127 698.622 352.906 702.774 351.242C706.916 349.583 710.944 347.735 714.834 345.566C720.003 342.682 725.366 339.427 730.25 335.743C735.847 332.271 740.551 327.492 744.703 322.477C749.615 316.543 754.117 310.558 756.901 303.353C758.269 299.813 759.345 296.121 759.983 292.386C760.011 292.224 760.046 292.047 760.085 291.864C760.738 290.574 761.321 289.255 761.811 287.906C762.588 285.766 764.425 283.412 760.98 282.66Z" fill="#69A1AC"/>
<path fill-rule="evenodd" clip-rule="evenodd" d="M112.292 294.013C110.94 292.666 109.422 291.45 107.64 290.583C107.189 290.364 103.833 288.895 103.614 289.218C103.105 289.968 111.886 293.583 112.292 294.013M128.205 285.012C128.194 285.069 129.358 286.887 129.675 287.446C130.349 288.635 130.972 289.847 131.558 291.061C130.691 288.916 129.8 286.927 128.205 285.012M46.8181 299.814C45.6972 300.146 44.3496 298.836 45.8035 298.513C46.9799 298.254 46.9222 298.193 47.4504 297.321C47.8794 296.612 48.1436 295.748 48.52 295.005C49.3184 293.427 50.224 291.923 51.3357 290.514C53.7182 287.493 56.621 284.889 59.8767 282.696C65.5586 278.867 71.9293 275.369 78.6872 273.611C89.4325 270.816 101.662 270.643 112.424 272.581C119.089 273.781 125.181 275.867 129.606 280.809C131.818 283.278 133.555 286.172 134.314 289.358C134.512 290.19 134.475 291.116 134.723 291.932C135.104 293.185 134.936 292.851 136.528 293.095C138.267 293.361 140.004 293.633 141.74 293.91C146.287 294.634 150.861 295.403 155.291 296.578C156.75 296.965 158.176 297.437 159.569 297.987C160.622 298.401 164.818 299.704 165.328 300.965C166.177 303.062 163.333 302.111 162.45 301.655C161.676 301.254 160.881 300.881 160.075 300.538C158.045 299.673 155.93 299.004 153.767 298.471C151.43 297.895 149.045 297.466 146.669 297.035C144.454 296.634 142.23 296.269 140.003 295.921C138.766 295.727 137.528 295.539 136.29 295.35C135.867 295.286 135.122 294.949 135.178 295.455C132.575 294.993 129.76 295.06 127.109 294.932C123.862 294.777 120.602 294.649 117.344 294.742C114.994 294.81 112.642 294.952 110.304 295.242C108.938 295.412 107.594 295.661 106.253 295.976C105.517 296.149 102.614 296.515 102.213 297.106C102.385 296.852 105.589 297.099 105.997 297.084C107.628 297.028 109.247 296.879 110.872 296.712C113.888 296.402 116.906 296.24 119.931 296.263C119.92 296.752 117.853 297.623 117.348 297.947C116.217 298.674 115.134 299.467 114.123 300.337C112.343 301.869 110.211 303.766 108.979 305.581C109.342 305.046 111.133 304.35 111.768 303.942C112.786 303.287 113.783 302.588 114.727 301.841C115.598 301.152 116.411 300.407 117.21 299.646C118.009 298.885 119.094 297.303 120.144 296.796C120.208 296.765 120.666 297.098 120.926 296.985C121.188 296.871 121.514 296.3 121.581 296.277C122.559 295.93 124.415 296.362 125.443 296.406C128.109 296.519 130.772 296.667 133.435 296.802C134.26 296.843 134.962 296.671 135.273 297.231C135.605 297.829 134.997 299.4 134.824 300.051C134.181 302.469 133.041 304.638 131.245 306.511C127.883 310.02 123.736 312.359 119.052 313.924C101.111 319.918 82.0234 322.318 64.0874 316.083C56.6619 313.502 45.4791 308.889 46.8181 299.814" fill="#89C5CC"/>
<g opacity="0.6" clip-path="url(#clip2)">
<path fill-rule="evenodd" clip-rule="evenodd" d="M867.965 582.189C880.165 658.272 584.277 707.899 329.6 673.266C74.9222 638.633 -41.9118 503.387 79.6161 431.322C201.144 359.258 855.764 506.106 867.965 582.189Z" fill="#DDE3E9"/>
</g>
<rect x="218" y="127" width="159" height="302" rx="8" fill="#F2F2F2"/>
<path fill-rule="evenodd" clip-rule="evenodd" d="M297 410C305.284 410 312 403.284 312 395C312 386.716 305.284 380 297 380C288.716 380 282 386.716 282 395C282 403.284 288.716 410 297 410Z" fill="white"/>
<path fill-rule="evenodd" clip-rule="evenodd" d="M284 147C285.105 147 286 146.105 286 145C286 143.895 285.105 143 284 143C282.895 143 282 143.895 282 145C282 146.105 282.895 147 284 147Z" fill="white"/>
<rect x="291" y="143" width="21" height="4" rx="2" fill="white"/>
<rect x="232" y="155" width="131" height="54" rx="4" fill="white"/>
<g clip-path="url(#clip3)">
<rect x="271" y="171.2" width="73" height="8.1" rx="3" fill="#DDE3E9"/>
<rect x="271" y="184.7" width="49" height="8.1" rx="3" fill="#DDE3E9"/>
</g>
<path fill-rule="evenodd" clip-rule="evenodd" d="M253 194C259.627 194 265 188.627 265 182C265 175.373 259.627 170 253 170C246.373 170 241 175.373 241 182C241 188.627 246.373 194 253 194Z" fill="#C5CFD6"/>
<rect x="232" y="217" width="131" height="42" rx="4" fill="white"/>
<g clip-path="url(#clip4)">
<rect x="271" y="229.6" width="73" height="6.3" rx="3" fill="#DDE3E9"/>
<rect x="271" y="240.1" width="49" height="6.3" rx="3" fill="#DDE3E9"/>
</g>
<path fill-rule="evenodd" clip-rule="evenodd" d="M253 250C259.627 250 265 244.627 265 238C265 231.373 259.627 226 253 226C246.373 226 241 231.373 241 238C241 244.627 246.373 250 253 250Z" fill="#C5CFD6"/>
<rect x="232" y="267" width="131" height="42" rx="4" fill="white"/>
<g clip-path="url(#clip5)">
<rect x="271" y="279.6" width="73" height="6.3" rx="3" fill="#DDE3E9"/>
<rect x="271" y="290.1" width="49" height="6.3" rx="3" fill="#DDE3E9"/>
</g>
<path fill-rule="evenodd" clip-rule="evenodd" d="M253 300C259.627 300 265 294.627 265 288C265 281.373 259.627 276 253 276C246.373 276 241 281.373 241 288C241 294.627 246.373 300 253 300Z" fill="#AFB9C5"/>
<rect x="232" y="317" width="131" height="42" rx="4" fill="white"/>
<g clip-path="url(#clip6)">
<rect x="271" y="329.6" width="73" height="6.3" rx="3" fill="#DDE3E9"/>
<rect x="271" y="340.1" width="49" height="6.3" rx="3" fill="#DDE3E9"/>
</g>
<path fill-rule="evenodd" clip-rule="evenodd" d="M253 350C259.627 350 265 344.627 265 338C265 331.373 259.627 326 253 326C246.373 326 241 331.373 241 338C241 344.627 246.373 350 253 350Z" fill="#C5CFD6"/>
<path fill-rule="evenodd" clip-rule="evenodd" d="M248.14 371C246.815 371 245.494 371.027 244.171 371.095C243.162 371.148 241.621 370.939 240.768 371.568C239.881 372.221 239.942 373.557 240.081 374.501C240.813 379.493 242.6 383.919 246.339 387.456C252.096 392.901 258.695 395.668 266.504 396.9C271.99 397.766 277.054 396.564 281.092 392.663C284.043 398.139 286.281 404.199 287.404 410.315C287.958 413.333 288.127 416.315 288.03 419.388C287.967 421.356 287.859 423.32 287.648 425.279C287.556 426.13 287.122 427.418 287.455 428.223C287.846 429.167 289.165 429.259 289.757 428.453C290.25 427.783 290.16 426.466 290.261 425.673C290.429 424.355 290.584 423.036 290.695 421.712C290.876 419.569 291.009 417.42 291 415.268C290.977 410.435 289.902 405.583 288.432 400.995C285.612 392.192 281.037 384.369 273.921 378.231C269.545 374.457 264.537 372.929 258.856 372.108C255.318 371.597 251.723 371 248.14 371Z" fill="#89C5CC"/>
<path fill-rule="evenodd" clip-rule="evenodd" d="M268.571 406C254.272 406 244.642 417.524 240.089 429.502C238.372 434.016 237.97 438.974 237.308 443.714C237.096 445.236 237.175 447.554 236.557 448.909C236.333 449.401 235.819 449.577 236.065 450.247C236.214 450.652 236.505 450.901 236.944 450.981C237.843 451.147 239.115 450.167 239.886 449.781C246.282 446.573 250.484 441.613 253.912 435.545C256.038 431.784 258.194 427.879 259.456 423.75C260.227 421.227 260.676 418.571 260.94 415.954C261.044 414.923 261.144 413.868 261.138 412.832C261.132 411.803 260.653 411.259 260.309 410.364C265.08 408.558 270.466 408.066 275.299 409.937C279.769 411.668 283.482 415.013 285.561 419.216C286.101 420.308 286.518 421.46 286.821 422.636C287.02 423.406 287.029 424.404 287.398 425.1C288.29 426.788 290.168 425.66 289.988 424.089C289.485 419.708 286.979 415.309 283.775 412.263C279.734 408.421 274.258 406 268.571 406Z" fill="#89C5CC"/>
<rect x="284" y="153" width="159" height="302" rx="8" fill="#DDE3E9"/>
<path fill-rule="evenodd" clip-rule="evenodd" d="M363 436C371.284 436 378 429.284 378 421C378 412.716 371.284 406 363 406C354.716 406 348 412.716 348 421C348 429.284 354.716 436 363 436Z" fill="white"/>
<path fill-rule="evenodd" clip-rule="evenodd" d="M350 173C351.105 173 352 172.105 352 171C352 169.895 351.105 169 350 169C348.895 169 348 169.895 348 171C348 172.105 348.895 173 350 173Z" fill="white"/>
<rect x="357" y="169" width="21" height="4" rx="2" fill="white"/>
<rect x="298" y="181" width="131" height="54" rx="4" fill="white"/>
<g clip-path="url(#clip7)">
<rect x="307" y="197.2" width="73" height="8.1" rx="3" fill="#DDE3E9"/>
<rect x="307" y="210.7" width="49" height="8.1" rx="3" fill="#DDE3E9"/>
</g>
<path fill-rule="evenodd" clip-rule="evenodd" d="M415 215C418.866 215 422 211.866 422 208C422 204.134 418.866 201 415 201C411.134 201 408 204.134 408 208C408 211.866 411.134 215 415 215Z" fill="#DDE3E9"/>
<path fill-rule="evenodd" clip-rule="evenodd" d="M415 211C416.657 211 418 209.657 418 208C418 206.343 416.657 205 415 205C413.343 205 412 206.343 412 208C412 209.657 413.343 211 415 211Z" fill="#F2F2F2"/>
<rect x="298" y="243" width="131" height="42" rx="4" fill="white"/>
<g clip-path="url(#clip8)">
<rect x="337" y="255.6" width="73" height="6.3" rx="3" fill="#DDE3E9"/>
<rect x="337" y="266.1" width="49" height="6.3" rx="3" fill="#DDE3E9"/>
</g>
<path fill-rule="evenodd" clip-rule="evenodd" d="M319 276C325.627 276 331 270.627 331 264C331 257.373 325.627 252 319 252C312.373 252 307 257.373 307 264C307 270.627 312.373 276 319 276Z" fill="#C5CFD6"/>
<rect x="298" y="293" width="131" height="42" rx="4" fill="white"/>
<g clip-path="url(#clip9)">
<rect x="307" y="305.6" width="73" height="6.3" rx="3" fill="#DDE3E9"/>
<rect x="307" y="316.1" width="49" height="6.3" rx="3" fill="#AFB9C5"/>
</g>
<path fill-rule="evenodd" clip-rule="evenodd" d="M415 321C418.866 321 422 317.866 422 314C422 310.134 418.866 307 415 307C411.134 307 408 310.134 408 314C408 317.866 411.134 321 415 321Z" fill="#DDE3E9"/>
<path fill-rule="evenodd" clip-rule="evenodd" d="M415 317C416.657 317 418 315.657 418 314C418 312.343 416.657 311 415 311C413.343 311 412 312.343 412 314C412 315.657 413.343 317 415 317Z" fill="#F2F2F2"/>
<rect x="298" y="343" width="131" height="42" rx="4" fill="white"/>
<g clip-path="url(#clip10)">
<rect x="337" y="355.6" width="73" height="6.3" rx="3" fill="#DDE3E9"/>
<rect x="337" y="366.1" width="49" height="6.3" rx="3" fill="#DDE3E9"/>
</g>
<path fill-rule="evenodd" clip-rule="evenodd" d="M319 376C325.627 376 331 370.627 331 364C331 357.373 325.627 352 319 352C312.373 352 307 357.373 307 364C307 370.627 312.373 376 319 376Z" fill="#C5CFD6"/>
<rect x="350" y="178" width="335" height="346" rx="8" fill="#F2F2F2"/>
<rect x="599" y="221" width="70" height="81" rx="8" fill="white"/>
<path fill-rule="evenodd" clip-rule="evenodd" d="M634 268C642.837 268 650 260.837 650 252C650 243.163 642.837 236 634 236C625.163 236 618 243.163 618 252C618 260.837 625.163 268 634 268Z" fill="#DDE3E9"/>
<rect x="609" y="272" width="50" height="6" rx="3" fill="#DDE3E9"/>
<rect x="617" y="282" width="34" height="6" rx="3" fill="#DDE3E9"/>
<path d="M350 186C350 181.582 353.582 178 358 178H677C681.418 178 685 181.582 685 186V205H350V186Z" fill="#C5CFD6"/>
<path fill-rule="evenodd" clip-rule="evenodd" d="M363 196C365.209 196 367 194.209 367 192C367 189.791 365.209 188 363 188C360.791 188 359 189.791 359 192C359 194.209 360.791 196 363 196Z" fill="#F2F2F2"/>
<path fill-rule="evenodd" clip-rule="evenodd" d="M375 196C377.209 196 379 194.209 379 192C379 189.791 377.209 188 375 188C372.791 188 371 189.791 371 192C371 194.209 372.791 196 375 196Z" fill="#F2F2F2"/>
<path fill-rule="evenodd" clip-rule="evenodd" d="M387 196C389.209 196 391 194.209 391 192C391 189.791 389.209 188 387 188C384.791 188 383 189.791 383 192C383 194.209 384.791 196 387 196Z" fill="#F2F2F2"/>
<rect x="599" y="310" width="70" height="194" rx="8" fill="white"/>
<rect x="617" y="328" width="34" height="26" rx="4" fill="#DDE3E9"/>
<rect x="617" y="362" width="34" height="25" rx="4" fill="#AFB9C5"/>
<rect x="617" y="395" width="34" height="25" rx="4" fill="#DDE3E9"/>
<rect x="617" y="461" width="34" height="25" rx="4" fill="#DDE3E9"/>
<rect x="617" y="428" width="34" height="25" rx="4" fill="#C5CFD6"/>
<rect x="366" y="222" width="225" height="47" rx="4" fill="white"/>
<g clip-path="url(#clip11)">
<rect x="375" y="236.1" width="167" height="7.05" rx="3" fill="#DDE3E9"/>
<rect x="375" y="247.85" width="112.096" height="7.05" rx="3" fill="#DDE3E9"/>
</g>
<path fill-rule="evenodd" clip-rule="evenodd" d="M566.954 252.5C570.82 252.5 573.954 249.366 573.954 245.5C573.954 241.634 570.82 238.5 566.954 238.5C563.088 238.5 559.954 241.634 559.954 245.5C559.954 249.366 563.088 252.5 566.954 252.5Z" fill="#DDE3E9"/>
<path fill-rule="evenodd" clip-rule="evenodd" d="M566.954 248.5C568.611 248.5 569.954 247.157 569.954 245.5C569.954 243.843 568.611 242.5 566.954 242.5C565.297 242.5 563.954 243.843 563.954 245.5C563.954 247.157 565.297 248.5 566.954 248.5Z" fill="#F2F2F2"/>
<rect x="366" y="277" width="225" height="39" rx="4" fill="white"/>
<g clip-path="url(#clip12)">
<rect x="375" y="288.7" width="167" height="5.85" rx="2.925" fill="#DDE3E9"/>
<rect x="375" y="298.45" width="112.096" height="5.85" rx="2.925" fill="#DDE3E9"/>
</g>
<path fill-rule="evenodd" clip-rule="evenodd" d="M566.954 303.5C570.82 303.5 573.954 300.366 573.954 296.5C573.954 292.634 570.82 289.5 566.954 289.5C563.088 289.5 559.954 292.634 559.954 296.5C559.954 300.366 563.088 303.5 566.954 303.5Z" fill="#DDE3E9"/>
<path fill-rule="evenodd" clip-rule="evenodd" d="M566.954 299.5C568.611 299.5 569.954 298.157 569.954 296.5C569.954 294.843 568.611 293.5 566.954 293.5C565.297 293.5 563.954 294.843 563.954 296.5C563.954 298.157 565.297 299.5 566.954 299.5Z" fill="#F2F2F2"/>
<rect x="366" y="324" width="225" height="39" rx="4" fill="white"/>
<g clip-path="url(#clip13)">
<rect x="375" y="335.7" width="167" height="5.85" rx="2.925" fill="#DDE3E9"/>
<rect x="375" y="345.45" width="112.096" height="5.85" rx="2.925" fill="#DDE3E9"/>
</g>
<path fill-rule="evenodd" clip-rule="evenodd" d="M566.954 350.5C570.82 350.5 573.954 347.366 573.954 343.5C573.954 339.634 570.82 336.5 566.954 336.5C563.088 336.5 559.954 339.634 559.954 343.5C559.954 347.366 563.088 350.5 566.954 350.5Z" fill="#DDE3E9"/>
<path fill-rule="evenodd" clip-rule="evenodd" d="M566.954 346.5C568.611 346.5 569.954 345.157 569.954 343.5C569.954 341.843 568.611 340.5 566.954 340.5C565.297 340.5 563.954 341.843 563.954 343.5C563.954 345.157 565.297 346.5 566.954 346.5Z" fill="#AFB9C5"/>
<rect x="366" y="465" width="225" height="39" rx="4" fill="white"/>
<g clip-path="url(#clip14)">
<rect x="375" y="476.7" width="167" height="5.85" rx="2.925" fill="#DDE3E9"/>
<rect x="375" y="486.45" width="112.096" height="5.85" rx="2.925" fill="#DDE3E9"/>
</g>
<path fill-rule="evenodd" clip-rule="evenodd" d="M566.954 491.5C570.82 491.5 573.954 488.366 573.954 484.5C573.954 480.634 570.82 477.5 566.954 477.5C563.088 477.5 559.954 480.634 559.954 484.5C559.954 488.366 563.088 491.5 566.954 491.5Z" fill="#DDE3E9"/>
<path fill-rule="evenodd" clip-rule="evenodd" d="M566.954 487.5C568.611 487.5 569.954 486.157 569.954 484.5C569.954 482.843 568.611 481.5 566.954 481.5C565.297 481.5 563.954 482.843 563.954 484.5C563.954 486.157 565.297 487.5 566.954 487.5Z" fill="#F2F2F2"/>
<rect x="366" y="418" width="225" height="39" rx="4" fill="white"/>
<g clip-path="url(#clip15)">
<rect x="375" y="429.7" width="167" height="5.85" rx="2.925" fill="#DDE3E9"/>
<rect x="375" y="439.45" width="112.096" height="5.85" rx="2.925" fill="#DDE3E9"/>
</g>
<path fill-rule="evenodd" clip-rule="evenodd" d="M566.954 444.5C570.82 444.5 573.954 441.366 573.954 437.5C573.954 433.634 570.82 430.5 566.954 430.5C563.088 430.5 559.954 433.634 559.954 437.5C559.954 441.366 563.088 444.5 566.954 444.5Z" fill="#DDE3E9"/>
<path fill-rule="evenodd" clip-rule="evenodd" d="M566.954 440.5C568.611 440.5 569.954 439.157 569.954 437.5C569.954 435.843 568.611 434.5 566.954 434.5C565.297 434.5 563.954 435.843 563.954 437.5C563.954 439.157 565.297 440.5 566.954 440.5Z" fill="#F2F2F2"/>
<rect x="366" y="371" width="225" height="39" rx="4" fill="white"/>
<g clip-path="url(#clip16)">
<rect x="375" y="382.7" width="167" height="5.85" rx="2.925" fill="#DDE3E9"/>
<rect x="375" y="392.45" width="112.096" height="5.85" rx="2.925" fill="#DDE3E9"/>
</g>
<path fill-rule="evenodd" clip-rule="evenodd" d="M566.954 397.5C570.82 397.5 573.954 394.366 573.954 390.5C573.954 386.634 570.82 383.5 566.954 383.5C563.088 383.5 559.954 386.634 559.954 390.5C559.954 394.366 563.088 397.5 566.954 397.5Z" fill="#DDE3E9"/>
<path fill-rule="evenodd" clip-rule="evenodd" d="M566.954 393.5C568.611 393.5 569.954 392.157 569.954 390.5C569.954 388.843 568.611 387.5 566.954 387.5C565.297 387.5 563.954 388.843 563.954 390.5C563.954 392.157 565.297 393.5 566.954 393.5Z" fill="#F2F2F2"/>
<path fill-rule="evenodd" clip-rule="evenodd" d="M767.986 348.376C764.041 345.701 758.796 345 754.076 345C735.64 345 718.311 351.84 703.341 362.032C695.138 367.616 687.8 374.728 681.322 382.132C677.582 386.407 674.248 391.03 671.887 396.173C670.294 399.644 669.201 403.261 668.46 406.991C667.557 411.537 666.839 416.175 666.515 420.797C666.387 422.617 665.33 432.274 668.356 432.438C668.338 432.676 668.334 432.903 668.353 433.106C661.782 443.38 657.723 455.42 653.958 466.835C650.683 476.769 647.764 486.786 645.87 497.063C643.375 510.592 641.737 524.326 640.958 538.05C640.791 540.999 640.676 543.95 640.577 546.903C640.493 549.422 640.408 551.941 640.325 554.461C640.233 557.284 639.736 560.534 640.185 563.34C640.576 565.784 642.691 565.414 642.785 562.982C642.898 560.045 642.879 557.102 643.008 554.163C643.179 550.262 643.355 546.361 643.546 542.461C644.875 515.369 649.86 488.675 659.061 463.084C662.785 452.728 667.051 442.925 672.535 433.345C677.356 424.922 683.156 416.767 689.084 409.173C694.845 401.792 700.836 394.583 707.895 388.33C713.624 383.256 719.926 378.835 726.404 374.722C734.631 369.498 742.843 364.401 751.755 360.391C756.388 358.307 761.108 356.441 765.777 354.44C766.617 354.081 767.517 353.732 768.325 353.315C771.02 351.925 770.133 349.832 767.986 348.376Z" fill="#C1DEE2"/>
<path fill-rule="evenodd" clip-rule="evenodd" d="M693.818 443C701.295 443 707.949 443.972 714.838 446.943C720.785 449.508 726.205 452.903 731.467 456.599C738.868 461.798 744.698 467.848 748.779 475.865C751.217 480.654 753.006 487.431 751.368 492.655C749.44 498.807 744.144 503.939 737.169 502.855C732.856 502.185 728.903 499.33 725.625 496.643C721.703 493.428 718.564 489.563 715.972 485.27C711.744 478.267 709.26 470.351 705.668 463.033C703.964 459.56 702.317 456.063 700.275 452.762C699.265 451.128 698.189 449.509 696.656 448.294C695.836 447.644 692.378 446.52 693.7 445.061C674.31 445.315 657.132 460.207 653.409 478.641C653.063 480.359 652.792 482.091 652.505 483.82C652.325 484.911 652.398 488.937 651.422 489.634C649.27 491.172 650.174 486.499 650.267 485.826C650.506 484.087 650.76 482.35 651.027 480.615C652.481 471.181 656.681 462.411 663.685 455.683C671.694 447.99 682.501 443 693.818 443Z" fill="#89C5CC"/>
<path fill-rule="evenodd" clip-rule="evenodd" d="M56.9379 475.736C75.6043 507.052 97.3449 537.374 110.401 571.613C109.875 567.577 109.317 563.545 108.692 559.52C105.38 538.179 101.262 516.994 96.9359 495.835C94.7326 485.062 92.4023 474.327 90.0123 463.594C88.7268 457.829 87.4572 452.061 86.1452 446.302C85.8275 444.906 85.5544 442.469 85.1566 440C97.8449 481.637 110.081 523.305 119.031 565.942C120.205 571.538 121.205 577.124 122.024 582.7C122.304 581.428 122.58 580.156 122.881 578.887C126.503 563.68 131.935 548.594 138.403 534.374C141.495 527.575 145.046 520.924 149.228 514.726C151.836 510.863 157.986 506.271 160.364 502.314C147.355 526.176 142.657 556.032 135.145 581.973C133.312 588.304 131.467 594.624 129.659 600.955C140.987 578.237 158.563 559.571 183 551.483C153.42 571.027 135.678 605.254 123.722 640.26C123.683 640.675 123.636 641.09 123.595 641.506C127.114 634.829 131.545 628.789 137.551 624.56C150.407 615.504 164.667 618.142 177.137 625.91C167.35 619.689 149.663 625.354 141.428 631.677C135.533 636.203 130.495 642.275 126.12 648.2C125.072 649.62 123.641 651.277 122.13 653.044C120.012 666.795 116.56 680.452 111.672 694C112.479 690.111 111.896 683.892 112.12 680.993C112.144 680.68 112.164 680.365 112.188 680.053C111.445 683.019 110.727 685.951 110.036 688.837C111.41 683.331 112.156 677.583 112.739 671.776C112.889 669.281 113.036 666.785 113.19 664.29C113.141 659.553 112.946 654.799 112.616 650.036C111.447 645.408 110.137 641.042 109.056 637.411C105.159 624.31 99.4442 611.76 92.4108 600.051C85.9937 589.366 78.3124 579.688 69.4448 570.935C64.6643 566.217 59.6614 561.725 54.7289 557.17C52.9453 555.523 49.7572 551.474 47 549.363C67.0805 560.434 87.7489 572.41 102.398 590.248C100.68 583.653 98.8149 577.151 96.8417 570.78C86.8311 538.454 74.1913 504.953 56.9379 475.736Z" fill="#DDE3E9"/>
<path fill-rule="evenodd" clip-rule="evenodd" d="M77 653C77 688.899 79.8428 718 118 718C156.157 718 159 688.899 159 653" fill="#C5CFD6"/>
<rect x="600" y="135" width="6" height="25" rx="3" fill="#DDE3E9"/>
<rect x="614" y="119" width="6" height="41" rx="3" fill="#DDE3E9"/>
<rect x="628" y="111" width="6" height="49" rx="3" fill="#DDE3E9"/>
<rect x="642" y="119" width="6" height="41" rx="3" fill="#DDE3E9"/>
<rect x="656" y="103" width="6" height="57" rx="3" fill="#C5CFD6"/>
<path fill-rule="evenodd" clip-rule="evenodd" d="M108 409.256C108 398.117 117.002 389 128 389V409.256L114.332 424C110.444 420.395 108 415.107 108 409.256Z" fill="#F2F2F2"/>
<path fill-rule="evenodd" clip-rule="evenodd" d="M127.471 409H147.668C147.668 414.221 145.538 419.113 142.171 422.668C138.468 426.556 133.195 429 127.471 429C122.198 429 117.372 426.891 113.668 423.557L127.471 409Z" fill="#AFB9C5"/>
<path fill-rule="evenodd" clip-rule="evenodd" d="M148 409C148 398.002 138.998 389 128 389V409H148ZM118 389L126 407L108 399C109.78 394.334 113.777 390.78 118 389Z" fill="#C5CFD6"/>
<path fill-rule="evenodd" clip-rule="evenodd" d="M758.766 418.179C756.845 420.219 754.123 421.5 751.095 421.5C745.278 421.5 740.562 416.799 740.562 411C740.562 405.201 745.278 400.5 751.095 400.5V381C734.546 381 721 394.503 721 411C721 427.497 734.546 441 751.095 441C759.788 441 767.645 437.334 773 431.502L758.766 418.179Z" fill="#F2F2F2"/>
<path fill-rule="evenodd" clip-rule="evenodd" d="M751 381V400.5C756.799 400.5 761.5 405.201 761.5 411H781C781 394.503 767.497 381 751 381Z" fill="#AFB9C5"/>
<path fill-rule="evenodd" clip-rule="evenodd" d="M761.097 411C761.097 414.407 759.492 417.435 757 419.391L769.262 435C776.399 429.412 781 420.749 781 411H761.097Z" fill="#C5CFD6"/>
<path fill-rule="evenodd" clip-rule="evenodd" d="M568.051 142.504C566.573 144.068 564.479 145.05 562.15 145.05C557.675 145.05 554.048 141.446 554.048 137C554.048 132.554 557.675 128.95 562.15 128.95V114C549.42 114 539 124.352 539 137C539 149.648 549.42 160 562.15 160C568.837 160 574.88 157.189 579 152.718L568.051 142.504Z" fill="#F2F2F2"/>
<path fill-rule="evenodd" clip-rule="evenodd" d="M562 114V128.95C566.446 128.95 570.05 132.554 570.05 137H585C585 124.352 574.648 114 562 114Z" fill="#AFB9C5"/>
<path fill-rule="evenodd" clip-rule="evenodd" d="M570.073 137C570.073 139.555 568.869 141.827 567 143.293L576.196 155C581.55 150.809 585 144.312 585 137H570.073Z" fill="#C5CFD6"/>
<path fill-rule="evenodd" clip-rule="evenodd" d="M204.007 159.986C204.003 159.996 203.999 160.006 203.993 160.018C203.999 160.008 204.007 159.968 204.007 159.986Z" fill="#C5CFD6"/>
<path fill-rule="evenodd" clip-rule="evenodd" d="M203.998 160.001C203.998 160.003 203.996 160.007 203.996 160.011C203.996 160.001 204.014 159.971 203.998 160.001Z" fill="#C5CFD6"/>
<path fill-rule="evenodd" clip-rule="evenodd" d="M204.067 159.832C204.053 159.872 204.035 159.91 204.019 159.95C204.027 159.93 204.035 159.914 204.043 159.894C203.835 160.414 203.967 160.076 204.067 159.832Z" fill="#C5CFD6"/>
<path fill-rule="evenodd" clip-rule="evenodd" d="M204.022 159.953C204.014 159.971 204.006 159.991 203.998 160.009C203.94 160.121 204.022 159.953 204.022 159.953Z" fill="#C5CFD6"/>
<path fill-rule="evenodd" clip-rule="evenodd" d="M203.999 160.002C203.999 160 203.999 160 204.001 159.998C203.999 160 203.999 160 203.999 160.002Z" fill="#C5CFD6"/>
<path fill-rule="evenodd" clip-rule="evenodd" d="M203.99 160.016C203.978 160.04 204.046 159.924 203.99 160.016V160.016Z" fill="#C5CFD6"/>
<path fill-rule="evenodd" clip-rule="evenodd" d="M203.998 160.002L204.002 159.998C204 160 204 160.002 203.998 160.002Z" fill="#C5CFD6"/>
<rect x="156" y="108" width="95" height="63" rx="4" fill="#DDE3E9"/>
<path fill-rule="evenodd" clip-rule="evenodd" d="M192 126L164 171H220L192 126Z" fill="#AFB9C5"/>
<path fill-rule="evenodd" clip-rule="evenodd" d="M219.5 138L195 171H244L219.5 138Z" fill="#C5CFD6"/>
<path fill-rule="evenodd" clip-rule="evenodd" d="M230 138C234.971 138 239 133.971 239 129C239 124.029 234.971 120 230 120C225.029 120 221 124.029 221 129C221 133.971 225.029 138 230 138Z" fill="white"/>
<path fill-rule="evenodd" clip-rule="evenodd" d="M680.993 586.986C680.997 586.996 681.001 587.006 681.007 587.018C681.001 587.008 680.993 586.968 680.993 586.986Z" fill="#C5CFD6"/>
<path fill-rule="evenodd" clip-rule="evenodd" d="M681.002 587.001C681.002 587.003 681.004 587.007 681.004 587.011C681.004 587.001 680.986 586.971 681.002 587.001Z" fill="#C5CFD6"/>
<path fill-rule="evenodd" clip-rule="evenodd" d="M680.933 586.832C680.947 586.872 680.965 586.91 680.981 586.95C680.973 586.93 680.965 586.914 680.957 586.894C681.165 587.414 681.033 587.076 680.933 586.832Z" fill="#C5CFD6"/>
<path fill-rule="evenodd" clip-rule="evenodd" d="M680.978 586.953C680.986 586.971 680.994 586.991 681.002 587.009C681.06 587.121 680.978 586.953 680.978 586.953Z" fill="#C5CFD6"/>
<path fill-rule="evenodd" clip-rule="evenodd" d="M681.001 587.002C681.001 587 681.001 587 680.999 586.998C681.001 587 681.001 587 681.001 587.002Z" fill="#C5CFD6"/>
<path fill-rule="evenodd" clip-rule="evenodd" d="M681.01 587.016C681.022 587.04 680.954 586.924 681.01 587.016V587.016Z" fill="#C5CFD6"/>
<path fill-rule="evenodd" clip-rule="evenodd" d="M681.002 587.002L680.998 586.998C681 587 681 587.002 681.002 587.002Z" fill="#C5CFD6"/>
<rect width="142" height="94" rx="4" transform="matrix(-1 0 0 1 752 510)" fill="#DDE3E9"/>
<path fill-rule="evenodd" clip-rule="evenodd" d="M699.274 537L740.329 604H658.219L699.274 537Z" fill="#AFB9C5"/>
<path fill-rule="evenodd" clip-rule="evenodd" d="M656.944 554.946L693.239 604H620.649L656.944 554.946Z" fill="#C5CFD6"/>
<path fill-rule="evenodd" clip-rule="evenodd" d="M641.5 555C634.044 555 628 548.956 628 541.5C628 534.044 634.044 528 641.5 528C648.956 528 655 534.044 655 541.5C655 548.956 648.956 555 641.5 555Z" fill="white"/>
<path fill-rule="evenodd" clip-rule="evenodd" d="M492.716 370.991C496.139 377.732 500.536 382.703 503.476 383.633C510.851 385.965 525.953 363.095 526.763 350.864C527.572 338.633 504.803 318.855 492.19 336.207C487.812 342.23 486.944 349.504 487.985 356.533L460.572 384.813L480.925 397.531L492.716 370.991Z" fill="#B28B67"/>
<path fill-rule="evenodd" clip-rule="evenodd" d="M534.555 343.784C531.725 348.313 525.862 349.794 521.243 347.24C518.193 346.431 514.545 344.957 510.749 342.925C510.272 344.476 509.52 346.108 508.453 347.816C507.51 349.324 506.345 350.819 505.023 352.251C504.82 350.818 504.146 349.545 503.074 348.875C500.074 347 496.444 348.163 494.806 350.784C492.728 354.109 493.145 357.715 495.827 359.658C490.276 362.926 484.506 364.393 481.018 362.214C474.394 358.075 475.218 346.276 481.168 336.754C481.377 336.42 481.592 336.092 481.811 335.77C478.607 335.907 475.269 336.626 471.907 337.35C464.763 338.888 457.51 340.449 451.206 336.51C438.592 328.628 449.48 300.056 467.103 311.068C479.088 318.557 483.891 323.988 487.357 329.747C490.125 327.548 493.137 326.128 496.042 325.637C496.807 325.412 497.799 325.358 498.968 325.465C499.698 325.507 500.411 325.617 501.103 325.796C504.871 326.584 509.805 328.563 514.871 331.488C515.817 332.034 516.732 332.593 517.611 333.159C520.545 328.496 526.699 327.083 531.374 330.004C536.058 332.931 537.482 339.1 534.555 343.784Z" fill="#191847"/>
<path fill-rule="evenodd" clip-rule="evenodd" d="M377.408 561.221C377.408 561.221 413.392 571.286 439.5 571.286C465.608 571.286 488 555.786 488 555.786C488 555.786 452.786 545.456 430 545.456C407.214 545.456 377.408 561.221 377.408 561.221Z" fill="#1F28CF"/>
<path fill-rule="evenodd" clip-rule="evenodd" d="M460.267 580.957C460.036 580.61 459.84 580.231 459.685 579.822C456.479 571.342 405.117 479.859 400 463.133H457.826C461.717 475.85 479.227 555.653 481.691 571.575C489.467 596.69 505.475 678.028 507.519 683.663C509.669 689.591 497.572 695.766 494.349 688.479C489.22 676.883 476.999 644.798 471.557 625.207C466.456 606.841 462.302 590.318 460.267 580.957Z" fill="#997659"/>
<path fill-rule="evenodd" clip-rule="evenodd" d="M412.957 592.127C389.475 598.062 303.584 608.791 297.69 610.474C291.626 612.205 286.31 599.707 293.805 597C305.73 592.692 338.589 582.739 358.512 578.677C374.536 575.41 389.159 572.744 398.976 571.183C398.145 543.606 394.343 477.427 396.835 463.133H448C445.61 476.84 425.41 576.851 421.656 586.862C420.464 590.436 416.909 592.015 412.957 592.127Z" fill="#B28B67"/>
<path fill-rule="evenodd" clip-rule="evenodd" d="M295.931 596.207C296.209 595.07 295.518 593.899 294.365 593.697C292.261 593.328 289.127 592.889 287.456 593.183C284.792 593.653 279.838 595.442 279.838 595.442C280.383 598.532 289.632 650.987 289.632 650.987C289.632 650.987 297.171 651.89 296.92 647.124C296.668 642.359 296.584 639.192 296.584 639.192L303.541 611.346C303.677 610.8 303.336 610.248 302.785 610.127L298.467 609.177C298.467 609.177 295.691 605.214 295.215 602.514C294.925 600.871 295.465 598.113 295.931 596.207Z" fill="#E4E4E4"/>
<path fill-rule="evenodd" clip-rule="evenodd" d="M493.45 686.417C492.378 685.946 491.104 686.423 490.705 687.524C489.977 689.532 489 692.542 489 694.239C489 696.944 489.901 702.133 489.901 702.133C493.039 702.133 546.303 702.133 546.303 702.133C546.303 702.133 548.502 694.865 543.765 694.285C539.028 693.706 535.895 693.239 535.895 693.239L509.68 681.552C509.165 681.323 508.563 681.563 508.348 682.084L506.663 686.172C506.663 686.172 502.278 688.218 499.537 688.218C497.868 688.218 495.246 687.208 493.45 686.417Z" fill="#E4E4E4"/>
<path fill-rule="evenodd" clip-rule="evenodd" d="M397 463.133C397 463.133 430.82 453.457 461 463.133C468 495.071 485.009 507.747 488 556.712C454 573.606 412 544.664 377 561.138C367 538.094 381 482.598 397 463.133Z" fill="#2B44FF"/>
<path fill-rule="evenodd" clip-rule="evenodd" d="M526.769 520.166L510.227 484.215L495.609 496.041L516.885 522.812C519.611 536.321 521.86 542.569 523.63 541.556C525.123 540.701 525.181 539.159 525.235 537.739C525.276 536.632 525.315 535.599 526.028 535.023C527.654 533.707 532.804 536.795 537.565 539.934C542.327 543.073 542.104 540.057 541.51 538.299C538.118 532.447 533.204 526.402 526.769 520.166ZM356.497 497.812C361.363 493.311 391.445 442.793 391.445 442.793L410.925 450.359C410.925 450.359 370.465 501.753 367.654 504.77C364.004 508.688 364.596 516.644 364.997 522.039C365.059 522.873 365.117 523.647 365.153 524.334C361.65 524.524 360.834 522.356 359.975 520.07C359.004 517.488 357.976 514.755 352.955 515.102C351.015 515.236 349.11 515.543 347.249 515.844C340.82 516.881 334.915 517.835 329.902 511.26C329.107 510.218 328.895 507.361 332.378 506.528C341.055 504.455 354.118 500.012 356.497 497.812Z" fill="#B28B67"/>
<path fill-rule="evenodd" clip-rule="evenodd" d="M478.312 382.212L486.916 383.926C487.487 423.981 499.643 464.844 523.383 506.513L485.008 528.262C465.889 474.566 460.545 424.689 478.312 382.212Z" fill="#191847"/>
<path fill-rule="evenodd" clip-rule="evenodd" d="M404.177 470.154L476.063 497.748C476.063 497.748 474.398 427.418 490.695 384.961L470.251 373.406C442.688 394.273 424.922 426.171 404.177 470.154Z" fill="#DDE3E9"/>
<path fill-rule="evenodd" clip-rule="evenodd" d="M359.676 488.419C401.584 402.743 469.775 373.223 469.775 373.223L469.786 373.245C469.791 373.241 469.796 373.237 469.801 373.233L471.216 373.777C473.723 374.839 478.835 377.063 478.835 377.063L478.326 394.048C468.646 421.752 445.667 508.152 445.667 508.152L398.613 490.09C397.233 493.925 395.929 497.852 394.714 501.868L359.676 488.419Z" fill="#2F3676"/>
<path fill-rule="evenodd" clip-rule="evenodd" d="M398.48 490.461C404.465 473.746 411.908 458.751 419.766 445.612C414.635 462.812 409.598 483.946 411.589 495.493L398.48 490.461Z" fill="black" fill-opacity="0.1"/>
</g>
</g>
<defs>
<clipPath id="clip0">
<rect width="900" height="795" fill="white"/>
</clipPath>
<clipPath id="clip1">
<rect width="906" height="671" fill="white" transform="translate(-18 78)"/>
</clipPath>
<clipPath id="clip2">
<rect width="837.341" height="272.541" fill="white" transform="translate(31.3297 411.965)"/>
</clipPath>
<clipPath id="clip3">
<rect width="73" height="21.6" fill="white" transform="translate(271 171.2)"/>
</clipPath>
<clipPath id="clip4">
<rect width="73" height="16.8" fill="white" transform="translate(271 229.6)"/>
</clipPath>
<clipPath id="clip5">
<rect width="73" height="16.8" fill="white" transform="translate(271 279.6)"/>
</clipPath>
<clipPath id="clip6">
<rect width="73" height="16.8" fill="white" transform="translate(271 329.6)"/>
</clipPath>
<clipPath id="clip7">
<rect width="73" height="21.6" fill="white" transform="translate(307 197.2)"/>
</clipPath>
<clipPath id="clip8">
<rect width="73" height="16.8" fill="white" transform="translate(337 255.6)"/>
</clipPath>
<clipPath id="clip9">
<rect width="73" height="16.8" fill="white" transform="translate(307 305.6)"/>
</clipPath>
<clipPath id="clip10">
<rect width="73" height="16.8" fill="white" transform="translate(337 355.6)"/>
</clipPath>
<clipPath id="clip11">
<rect width="167" height="18.8" fill="white" transform="translate(375 236.1)"/>
</clipPath>
<clipPath id="clip12">
<rect width="167" height="15.6" fill="white" transform="translate(375 288.7)"/>
</clipPath>
<clipPath id="clip13">
<rect width="167" height="15.6" fill="white" transform="translate(375 335.7)"/>
</clipPath>
<clipPath id="clip14">
<rect width="167" height="15.6" fill="white" transform="translate(375 476.7)"/>
</clipPath>
<clipPath id="clip15">
<rect width="167" height="15.6" fill="white" transform="translate(375 429.7)"/>
</clipPath>
<clipPath id="clip16">
<rect width="167" height="15.6" fill="white" transform="translate(375 382.7)"/>
</clipPath>
</defs>
</svg>
