<svg width="274" height="272" viewBox="0 0 274 272" fill="none" xmlns="http://www.w3.org/2000/svg">
<path fill-rule="evenodd" clip-rule="evenodd" d="M137 22.6667H159.833V45.3333H182.667V87.2893L262.583 116.96V260.667H274V272H0V260.667H11.4167V136H79.9167V45.3333H102.75V22.6667H125.583V0H137V22.6667ZM171.25 56.6667H91.3333V260.667H102.75V238H159.833V260.667H171.25V56.6667ZM148.417 249.333H114.167V260.667H148.417V249.333ZM239.75 260.667H251.167V124.814L182.667 99.3933V260.667H194.083V238H239.75V260.667ZM79.9167 147.333H22.8333V260.667H34.25V238H68.5V260.667H79.9167V147.333ZM57.0833 249.333H45.6667V260.667H57.0833V249.333ZM228.333 249.333H205.5V260.667H228.333V249.333ZM45.6667 192.667V215.333H34.25V192.667H45.6667ZM68.5 192.667V215.333H57.0833V192.667H68.5ZM125.583 79.3333V215.333H114.167V79.3333H125.583ZM239.75 204V215.333H194.083V204H239.75ZM148.417 79.3333V215.333H137V79.3333H148.417ZM239.75 181.333V192.667H194.083V181.333H239.75ZM45.6667 158.667V181.333H34.25V158.667H45.6667ZM68.5 158.667V181.333H57.0833V158.667H68.5ZM239.75 158.667V170H194.083V158.667H239.75ZM239.75 136V147.333H194.083V136H239.75ZM148.417 34H114.167V45.3333H148.417V34Z" fill="url(#paint0_linear)"/>
<defs>
<linearGradient id="paint0_linear" x1="137" y1="0" x2="137" y2="272" gradientUnits="userSpaceOnUse">
<stop stop-color="#E87613"/>
<stop offset="1" stop-color="#FF9B21"/>
</linearGradient>
</defs>
</svg>
