<svg width="272" height="272" viewBox="0 0 272 272" fill="none" xmlns="http://www.w3.org/2000/svg">
<path fill-rule="evenodd" clip-rule="evenodd" d="M272 272H0V249.333H11.3107L11.4127 181.333H260.667V249.333H272V272ZM238 204H34V249.333H56.6667V226.667C56.6667 220.411 61.744 215.333 68 215.333C74.256 215.333 79.3333 220.411 79.3333 226.667V249.333H102V226.667C102 220.411 107.077 215.333 113.333 215.333C119.589 215.333 124.667 220.411 124.667 226.667V249.333H147.333V226.667C147.333 220.411 152.411 215.333 158.667 215.333C164.923 215.333 170 220.411 170 226.667V249.333H192.667V226.667C192.667 220.411 197.744 215.333 204 215.333C210.256 215.333 215.333 220.411 215.333 226.667V249.333H238V204ZM260.667 170H11.4353L11.4693 147.333H56.6667V113.333H79.3333V147.333H102V113.333H124.667V147.333H147.333V113.333H170V147.333H192.667V113.333H215.333V147.333H260.667V170ZM170 22.6667H136V34C169.615 34 205.791 56.4287 215.333 102H56.6667C62.866 59.16 97.8973 35.9607 124.667 34V0H170V22.6667ZM180.812 79.3333C170.839 66.8667 155.55 56.6667 136 56.6667C113.787 56.6667 99.008 66.1527 89.692 79.3333H180.812Z" fill="url(#paint0_linear)"/>
<defs>
<linearGradient id="paint0_linear" x1="136" y1="0" x2="136" y2="272" gradientUnits="userSpaceOnUse">
<stop stop-color="#E87613"/>
<stop offset="1" stop-color="#FF9B21"/>
</linearGradient>
</defs>
</svg>
