<svg width="277" height="272" viewBox="0 0 277 272" fill="none" xmlns="http://www.w3.org/2000/svg">
<path fill-rule="evenodd" clip-rule="evenodd" d="M138.486 56.6782C130.561 56.6782 124.124 63.0135 124.124 70.7995C124.124 78.5855 130.561 84.9095 138.486 84.9095C146.411 84.9095 152.848 78.5855 152.848 70.7995C152.848 63.0135 146.411 56.6782 138.486 56.6782ZM138.486 96.2542C124.205 96.2542 112.589 84.8302 112.589 70.7995C112.589 56.7575 124.205 45.3335 138.486 45.3335C152.756 45.3335 164.384 56.7575 164.384 70.7995C164.384 84.8302 152.756 96.2542 138.486 96.2542ZM216.237 56.6782C208.323 56.6782 201.875 63.0135 201.875 70.7995C201.875 78.5855 208.323 84.9095 216.237 84.9095C224.162 84.9095 230.599 78.5855 230.599 70.7995C230.599 63.0135 224.162 56.6782 216.237 56.6782ZM216.237 96.2542C201.956 96.2542 190.339 84.8302 190.339 70.7995C190.339 56.7575 201.956 45.3335 216.237 45.3335C230.53 45.3335 242.135 56.7575 242.135 70.7995C242.135 84.8302 230.53 96.2542 216.237 96.2542ZM60.6202 56.6782C52.6951 56.6782 46.2582 63.0135 46.2582 70.7995C46.2582 78.5855 52.6951 84.9095 60.6202 84.9095C68.5452 84.9095 74.9821 78.5855 74.9821 70.7995C74.9821 63.0135 68.5452 56.6782 60.6202 56.6782ZM60.6202 96.2542C46.339 96.2542 34.7225 84.8302 34.7225 70.7995C34.7225 56.7575 46.339 45.3335 60.6202 45.3335C74.9014 45.3335 86.5179 56.7575 86.5179 70.7995C86.5179 84.8302 74.9014 96.2542 60.6202 96.2542ZM218.256 166.079C224.497 166.079 229.549 170.646 229.999 176.675C230.368 181.639 233.344 213.622 233.344 213.622C233.61 216.592 238.247 216.467 238.374 213.645L242.008 135.037C242.25 129.495 249.737 127.534 252.678 132.351L265.333 152.773L253.14 115.045C252.701 113.651 251.04 112.653 249.194 112.653H27.6742C25.8169 112.653 24.1558 113.651 23.7174 115.045L11.4896 153.578L24.1789 132.351C27.2012 127.478 34.6187 129.563 34.8609 135.037L38.4831 213.645C38.6331 216.41 43.2359 216.444 43.5242 213.622C43.5242 213.622 46.4889 181.639 46.8696 176.664C47.3195 170.646 52.3606 166.079 58.6014 166.079C63.9655 166.079 69.7911 170.057 70.2871 176.675C70.6678 181.639 73.6325 213.622 73.6325 213.622C73.9439 216.614 78.6736 216.66 78.6736 213.633C79.6195 193.097 83.484 127.364 83.484 127.364C83.6685 124.406 86.1487 122.071 89.1711 122.037C100.788 121.913 96.3347 121.913 107.905 122.037C110.927 122.071 113.408 124.406 113.581 127.364C113.581 127.364 116.834 193.131 118.403 213.645C118.656 216.954 123.328 216.66 123.432 213.633C123.432 213.633 126.408 181.639 126.789 176.664C127.274 170.057 133.111 166.079 138.463 166.079C143.885 166.079 149.734 170.057 150.207 176.698C150.587 181.809 153.563 213.622 153.563 213.622C153.944 216.512 158.42 216.603 158.593 213.633C159.539 193.097 163.403 127.364 163.403 127.364C163.576 124.406 166.08 122.071 169.102 122.037C180.603 121.913 176.196 121.913 187.675 122.037C190.697 122.071 193.2 124.406 193.373 127.364C193.373 127.364 197.238 193.097 198.184 213.645C198.345 216.376 202.959 216.274 203.213 213.645C203.213 213.645 206.189 181.809 206.57 176.664C207.043 170.057 212.88 166.079 218.256 166.079ZM235.859 226.667C228.476 226.667 222.443 221.465 221.855 214.597C221.855 214.597 218.867 182.523 218.486 177.503C217.69 182.693 214.703 214.597 214.703 214.597C214.137 221.465 208.116 226.667 200.721 226.667C193.166 226.667 187.005 221.17 186.671 214.166C185.875 197.189 183.095 149.317 182.16 133.325H174.616C173.682 149.317 170.902 197.189 170.106 214.155C169.771 221.17 163.611 226.667 156.067 226.667C148.672 226.667 142.651 221.465 142.074 214.574C142.074 214.574 139.086 182.693 138.694 177.503C137.909 182.523 134.922 214.597 134.922 214.597C134.345 221.465 128.323 226.667 120.929 226.667C113.385 226.667 107.213 221.17 106.878 214.166C106.082 197.189 103.314 149.328 102.379 133.325H94.6967C93.7623 149.328 90.9822 197.189 90.1977 214.155C89.8632 221.17 83.6916 226.667 76.1588 226.667C68.7759 226.667 62.7427 221.465 62.1429 214.597C62.1429 214.597 59.1667 182.523 58.786 177.503C57.99 182.523 55.0138 214.597 55.0138 214.597C54.414 221.465 48.3923 226.667 41.0095 226.667C33.4651 226.667 27.2935 221.17 26.959 214.166L24.1904 154.122L21.3757 158.667C18.6763 163.075 12.6201 165.115 7.50975 163.347C3.02236 161.806 0 157.749 0 153.249L0.472964 150.212L12.7124 111.667C14.6734 105.479 20.6951 101.309 27.6742 101.309H249.194C256.058 101.309 262.218 105.559 264.168 111.667L276.384 150.189L276.857 153.249C276.857 157.76 273.823 161.806 269.336 163.347C264.548 165.036 258.192 163.087 255.481 158.655L252.655 154.111L249.887 214.155C249.575 221.17 243.415 226.667 235.859 226.667Z" fill="url(#paint0_linear)"/>
<defs>
<linearGradient id="paint0_linear" x1="138.429" y1="45.3335" x2="138.429" y2="226.667" gradientUnits="userSpaceOnUse">
<stop stop-color="#65ACED"/>
<stop offset="1" stop-color="#7A8DFF"/>
</linearGradient>
</defs>
</svg>
