<svg xmlns="http://www.w3.org/2000/svg" width="415" height="272" fill="none" viewBox="0 0 415 272"><path fill="url(#paint0_linear)" fill-rule="evenodd" d="M207.569 40.5761C198.094 40.5761 190.398 48.1575 190.398 57.4749C190.398 66.7924 198.094 74.3603 207.569 74.3603C217.044 74.3603 224.74 66.7924 224.74 57.4749C224.74 48.1575 217.044 40.5761 207.569 40.5761V40.5761ZM207.569 87.9363C190.495 87.9363 176.607 74.2653 176.607 57.4749C176.607 40.671 190.495 27 207.569 27C224.629 27 238.531 40.671 238.531 57.4749C238.531 74.2653 224.629 87.9363 207.569 87.9363ZM300.525 40.5761C291.064 40.5761 283.354 48.1575 283.354 57.4749C283.354 66.7924 291.064 74.3603 300.525 74.3603C310 74.3603 317.695 66.7924 317.695 57.4749C317.695 48.1575 310 40.5761 300.525 40.5761V40.5761ZM300.525 87.9363C283.451 87.9363 269.563 74.2653 269.563 57.4749C269.563 40.671 283.451 27 300.525 27C317.613 27 331.487 40.671 331.487 57.4749C331.487 74.2653 317.613 87.9363 300.525 87.9363ZM114.475 40.5761C105 40.5761 97.3046 48.1575 97.3046 57.4749C97.3046 66.7924 105 74.3603 114.475 74.3603C123.95 74.3603 131.646 66.7924 131.646 57.4749C131.646 48.1575 123.95 40.5761 114.475 40.5761V40.5761ZM114.475 87.9363C97.4011 87.9363 83.5129 74.2653 83.5129 57.4749C83.5129 40.671 97.4011 27 114.475 27C131.549 27 145.438 40.671 145.438 57.4749C145.438 74.2653 131.549 87.9363 114.475 87.9363ZM302.938 171.495C310.4 171.495 316.44 176.961 316.978 184.176C317.42 190.116 320.978 228.39 320.978 228.39C321.295 231.943 326.839 231.794 326.991 228.417L331.335 134.347C331.625 127.715 340.576 125.369 344.093 131.133L359.222 155.572L344.644 110.423C344.12 108.755 342.134 107.561 339.928 107.561H75.0862C72.8657 107.561 70.8798 108.755 70.3557 110.423L55.7365 156.535L70.9073 131.133C74.5208 125.301 83.3888 127.796 83.6784 134.347L88.009 228.417C88.1883 231.726 93.6912 231.767 94.036 228.39C94.036 228.39 97.5804 190.116 98.0355 184.162C98.5734 176.961 104.6 171.495 112.062 171.495C118.475 171.495 125.44 176.255 126.033 184.176C126.488 190.116 130.032 228.39 130.032 228.39C130.405 231.97 136.059 232.024 136.059 228.403C137.19 203.828 141.81 125.165 141.81 125.165C142.031 121.626 144.996 118.832 148.61 118.791C162.498 118.642 157.174 118.642 171.007 118.791C174.621 118.832 177.586 121.626 177.793 125.165C177.793 125.165 181.682 203.869 183.558 228.417C183.861 232.377 189.447 232.024 189.571 228.403C189.571 228.403 193.129 190.116 193.584 184.162C194.163 176.255 201.142 171.495 207.541 171.495C214.023 171.495 221.016 176.255 221.581 184.203C222.036 190.32 225.595 228.39 225.595 228.39C226.05 231.848 231.401 231.957 231.608 228.403C232.739 203.828 237.359 125.165 237.359 125.165C237.566 121.626 240.559 118.832 244.172 118.791C257.922 118.642 252.654 118.642 266.377 118.791C269.99 118.832 272.983 121.626 273.19 125.165C273.19 125.165 277.81 203.828 278.941 228.417C279.134 231.685 284.651 231.563 284.954 228.417C284.954 228.417 288.512 190.32 288.967 184.162C289.533 176.255 296.511 171.495 302.938 171.495V171.495ZM323.984 244C315.158 244 307.945 237.775 307.241 229.556C307.241 229.556 303.669 191.174 303.214 185.166C302.263 191.377 298.69 229.556 298.69 229.556C298.015 237.775 290.815 244 281.975 244C272.941 244 265.577 237.422 265.177 229.041C264.225 208.724 260.901 151.436 259.784 132.299H250.764C249.647 151.436 246.324 208.724 245.372 229.027C244.972 237.422 237.607 244 228.587 244C219.747 244 212.548 237.775 211.858 229.529C211.858 229.529 208.286 191.377 207.817 185.166C206.879 191.174 203.307 229.556 203.307 229.556C202.618 237.775 195.419 244 186.578 244C177.558 244 170.18 237.422 169.78 229.041C168.828 208.724 165.518 151.449 164.401 132.299H155.216C154.099 151.449 150.775 208.724 149.837 229.027C149.437 237.422 142.059 244 133.053 244C124.226 244 117.013 237.775 116.296 229.556C116.296 229.556 112.737 191.174 112.282 185.166C111.331 191.174 107.772 229.556 107.772 229.556C107.055 237.775 99.856 244 91.0294 244C82.0096 244 74.6311 237.422 74.2311 229.041L70.9211 157.186L67.556 162.625C64.3287 167.901 57.0881 170.342 50.9784 168.226C45.6134 166.382 42 161.526 42 156.142L42.5655 152.507L57.1984 106.381C59.543 98.9762 66.7422 93.9852 75.0862 93.9852H339.928C348.134 93.9852 355.498 99.0711 357.829 106.381L372.435 152.48L373 156.142C373 161.54 369.373 166.382 364.008 168.226C358.284 170.247 350.685 167.914 347.444 162.611L344.065 157.173L340.755 229.027C340.383 237.422 333.018 244 323.984 244" clip-rule="evenodd"/><defs><linearGradient id="paint0_linear" x1="207.5" x2="207.5" y1="27" y2="244" gradientUnits="userSpaceOnUse"><stop stop-color="#E87613"/><stop offset="1" stop-color="#FF9B21"/></linearGradient></defs></svg>