<svg width="308" height="305" viewBox="0 0 308 305" fill="none" xmlns="http://www.w3.org/2000/svg">
<g clip-path="url(#clip0)">
<circle cx="39.5" cy="220.5" r="32.5" fill="#FFA9C4"/>
<mask id="mask0" mask-type="alpha" maskUnits="userSpaceOnUse" x="28" y="-15" width="274" height="294">
<ellipse cx="165" cy="132" rx="137" ry="147" fill="#C4C4C4"/>
</mask>
<g mask="url(#mask0)">
<circle cx="165" cy="154" r="125" fill="#AED5F8"/>
<path fill-rule="evenodd" clip-rule="evenodd" d="M105.362 22.09C94.2041 26.1512 88.4509 38.4888 92.5121 49.6469L99.6945 69.3804C103.479 79.7789 114.452 85.4832 124.959 82.9247C124.979 82.9719 125 83.0191 125.02 83.0664L152.271 73.1478C155.047 67.3715 141.06 42.0783 133.477 31.3211C128.48 22.1237 117.374 17.7179 107.241 21.406L105.362 22.09Z" fill="#191847"/>
<path fill-rule="evenodd" clip-rule="evenodd" d="M123.212 66.9339C130.632 68.3869 137.256 67.9829 139.799 66.2379C146.176 61.8624 137.453 35.8812 128.313 27.7134C119.174 19.5457 89.5699 25.3106 95.4782 45.934C97.5289 53.0918 102.727 58.2538 108.907 61.7604L114.314 100.774L136.866 92.5652L123.212 66.9339Z" fill="#B28B67"/>
<path fill-rule="evenodd" clip-rule="evenodd" d="M92.5368 47.1375C92.9559 46.2517 93.3614 45.3947 93.7859 44.6052L93.4898 43.8858C93.4898 43.8858 95.2938 26.8188 106.175 22.8582C117.047 18.9011 122.325 22.704 126.812 25.9366L126.824 25.9453C127.204 31.7472 123.369 35.5464 119.032 39.8432C117.165 41.6927 115.205 43.6345 113.448 45.8679C112.297 45.4693 111.006 45.449 109.771 45.8983C106.917 46.9372 105.445 50.0933 106.484 52.9477C107.523 55.8021 110.679 57.2738 113.533 56.2349C113.612 56.2063 113.69 56.176 113.766 56.1442C118.868 66.9277 123.091 79.8256 121.095 83.9784L93.8444 93.897C88.1151 80.5899 90.2199 75.4329 92.3707 70.1633C94.3944 65.2049 96.4588 60.1468 92.0762 48.1058C92.2325 47.7805 92.3855 47.4572 92.5368 47.1376L92.5368 47.1375Z" fill="#191847"/>
<path fill-rule="evenodd" clip-rule="evenodd" d="M355.14 282.301C328.379 266.42 309.738 254.21 299.219 245.672C281.207 231.051 265.98 217.751 260.772 212.448C248.354 199.804 268.562 184.411 276.293 189.604C287.994 197.462 316.922 225.063 363.076 272.407L355.14 282.301Z" fill="#B28B67"/>
<path fill-rule="evenodd" clip-rule="evenodd" d="M314.781 289.541L248.711 215.297C235.578 202.16 267.406 178.798 275.505 184.188C293.894 196.426 347.141 251.727 352.619 255.373L314.781 289.541Z" fill="#2F3676"/>
<path fill-rule="evenodd" clip-rule="evenodd" d="M216.615 305.559C219.765 293.317 232.199 251.464 240.541 232.983C242.938 227.672 245.3 222.552 247.553 217.763C254.25 203.526 281.511 213.436 274.496 226.736C257.024 259.86 230.594 305.611 228.451 309.612C225.447 315.221 214.635 313.252 216.615 305.559Z" fill="#B28B67"/>
<path fill-rule="evenodd" clip-rule="evenodd" d="M237.882 224.148C237.882 224.148 192.347 232.791 176.811 235.531C147.288 240.736 133.764 228.752 126.692 194.438L177.807 175.834C189.02 175.071 275.79 181.216 275.79 181.216C286.361 182.401 289.464 196.113 289.399 201.026C289.395 201.327 272.358 295.098 272.358 295.098L220.848 283.68L239.103 227.259C239.103 227.259 239.466 224.032 237.882 224.148Z" fill="#5C63AB"/>
<path fill-rule="evenodd" clip-rule="evenodd" d="M252.518 159.637L214.533 148.536L213.868 167.327L248.031 168.832C260.015 175.638 266.205 178.04 266.602 176.039C266.937 174.352 265.811 173.296 264.774 172.324C263.966 171.567 263.212 170.86 263.244 169.944C263.318 167.853 269.027 165.993 274.52 164.459C280.013 162.925 277.591 161.114 275.875 160.409C269.232 159.129 261.447 158.872 252.518 159.637ZM109.442 255.635C110.162 249.046 99.7218 191.184 99.7218 191.184L119.387 184.114C119.387 184.114 122.569 249.446 122.427 253.566C122.243 258.918 127.909 264.534 131.751 268.342C132.346 268.932 132.897 269.477 133.375 269.972C130.856 272.414 128.818 271.313 126.669 270.152C124.242 268.84 121.674 267.452 118.112 271.008C116.736 272.381 115.5 273.863 114.293 275.311C110.121 280.312 106.289 284.905 98.1932 283.232C96.9096 282.967 94.8747 280.95 96.9573 278.037C102.146 270.78 109.089 258.856 109.442 255.635Z" fill="#B28B67"/>
<path fill-rule="evenodd" clip-rule="evenodd" d="M125.536 88.4727L133.155 84.1214C172.783 99.1923 203.376 144.719 249.978 157.773L245.096 172.036C178.098 187.432 139.995 132.187 125.536 88.4727Z" fill="#B90F30"/>
<path fill-rule="evenodd" clip-rule="evenodd" d="M127.281 203.48C127.281 203.48 176.153 185.692 199.179 177.311C202.464 176.115 200.118 171.597 198.772 169.376C183.235 143.743 151 121.75 136.686 82.4231L114.764 86.7193C107.652 120.551 114.082 156.676 127.281 203.48Z" fill="#DDE3E9"/>
<path fill-rule="evenodd" clip-rule="evenodd" d="M126.38 226.156C125.973 235.092 125.269 243.017 124.177 249.305L108.757 254.917C87.5752 201.882 92.8604 153.218 100.798 122.145C96.9262 123.249 92.9455 122.91 89.3784 119.808C76.8203 108.89 76.817 100.363 84.0166 94.9396C87.9756 91.9572 92.5031 91.3614 97.9228 90.6483C102.358 90.0647 107.39 89.4026 113.197 87.2898C113.199 87.2891 113.201 87.2884 113.202 87.2877C113.765 87.0829 114.291 86.9342 114.782 86.8371L121.806 84.7252C121.806 84.7252 184.213 169.249 183.208 205.472L126.38 226.156Z" fill="#B90F30"/>
<path fill-rule="evenodd" clip-rule="evenodd" d="M126.38 226.156C126.913 214.43 126.935 200.963 126.651 187.166C133.128 200.116 140.663 212.748 147.62 218.425L126.38 226.156Z" fill="black" fill-opacity="0.1"/>
</g>
<circle cx="242.5" cy="262.5" r="32.5" fill="#FFEBA9"/>
<rect x="32.3579" y="89.3601" width="35" height="35" transform="rotate(-59 32.3579 89.3601)" fill="#7A8DFF"/>
<rect x="275" y="33.4279" width="10" height="10" transform="rotate(-40 275 33.4279)" fill="#7A8DFF" fill-opacity="0.7"/>
</g>
<defs>
<clipPath id="clip0">
<rect width="308" height="305" fill="white"/>
</clipPath>
</defs>
</svg>
